<svg xmlns="http://www.w3.org/2000/svg" viewBox="0 0 1600 1000" preserveAspectRatio="xMidYMid slice">
  <defs>
    <linearGradient id="sky" x1="0" x2="1" y1="0" y2="1">
      <stop offset="0" stop-color="#dbeafe"/>
      <stop offset="0.58" stop-color="#ecfeff"/>
      <stop offset="1" stop-color="#f8fafc"/>
    </linearGradient>
  </defs>
  <rect width="1600" height="1000" fill="url(#sky)"/>
  <circle cx="1220" cy="150" r="80" fill="#ffffff" opacity="0.72"/>
  <path d="M0 760 L0 520 L105 520 L105 420 L190 420 L190 760 L270 760 L270 350 L345 350 L345 760 L460 760 L460 470 L560 470 L560 760 L665 760 L665 300 L745 250 L825 300 L825 760 L930 760 L930 455 L1025 455 L1025 760 L1140 760 L1140 380 L1230 380 L1230 760 L1340 760 L1340 500 L1450 500 L1450 760 L1600 760 L1600 1000 L0 1000 Z" fill="#2563eb" opacity="0.32"/>
  <rect y="762" width="1600" height="238" fill="#67e8f9" opacity="0.28"/>
  <path d="M0 820 C240 780 400 860 620 820 C880 770 1040 855 1280 810 C1430 785 1510 805 1600 790" fill="none" stroke="#ffffff" stroke-width="18" opacity="0.44"/>
</svg>
