<svg xmlns="http://www.w3.org/2000/svg" viewBox="0 0 1600 1000" preserveAspectRatio="xMidYMid slice">
  <defs>
    <linearGradient id="sky" x1="0" x2="0" y1="0" y2="1">
      <stop offset="0" stop-color="#dff7ff"/>
      <stop offset="0.48" stop-color="#edfdf5"/>
      <stop offset="1" stop-color="#f8fafc"/>
    </linearGradient>
    <linearGradient id="water" x1="0" x2="1" y1="0" y2="0">
      <stop offset="0" stop-color="#bae6fd"/>
      <stop offset="1" stop-color="#99f6e4"/>
    </linearGradient>
  </defs>
  <rect width="1600" height="1000" fill="url(#sky)"/>
  <circle cx="1240" cy="180" r="90" fill="#ffffff" opacity="0.72"/>
  <path d="M0 520 C190 360 310 450 470 300 C620 430 740 360 900 250 C1080 410 1220 330 1600 500 L1600 1000 L0 1000 Z" fill="#86efac" opacity="0.42"/>
  <path d="M0 610 C250 520 360 590 560 470 C780 600 960 460 1160 550 C1320 610 1440 560 1600 620 L1600 1000 L0 1000 Z" fill="#0f766e" opacity="0.20"/>
  <rect y="650" width="1600" height="350" fill="url(#water)" opacity="0.46"/>
  <path d="M0 730 C220 690 360 770 590 715 C820 660 980 770 1210 710 C1380 665 1480 700 1600 680" fill="none" stroke="#ffffff" stroke-width="18" opacity="0.42"/>
  <path d="M0 810 C240 760 410 850 640 790 C860 735 1000 830 1220 780 C1420 735 1500 760 1600 748" fill="none" stroke="#ffffff" stroke-width="12" opacity="0.34"/>
</svg>
