<svg xmlns="http://www.w3.org/2000/svg" viewBox="0 0 1600 1000" preserveAspectRatio="xMidYMid slice">
  <defs>
    <linearGradient id="sky" x1="0" x2="0" y1="0" y2="1">
      <stop offset="0" stop-color="#dcfce7"/>
      <stop offset="0.5" stop-color="#e0f2fe"/>
      <stop offset="1" stop-color="#f8fafc"/>
    </linearGradient>
    <linearGradient id="lake" x1="0" x2="1" y1="0" y2="0">
      <stop offset="0" stop-color="#86efac"/>
      <stop offset="1" stop-color="#7dd3fc"/>
    </linearGradient>
  </defs>
  <rect width="1600" height="1000" fill="url(#sky)"/>
  <circle cx="1280" cy="180" r="86" fill="#ffffff" opacity="0.70"/>
  <path d="M0 520 C160 330 310 390 470 250 C620 420 760 315 930 230 C1110 420 1320 330 1600 500 L1600 1000 L0 1000 Z" fill="#16a34a" opacity="0.30"/>
  <path d="M0 620 C230 500 380 600 590 460 C780 610 970 500 1170 590 C1350 675 1480 600 1600 640 L1600 1000 L0 1000 Z" fill="#15803d" opacity="0.20"/>
  <rect y="690" width="1600" height="310" fill="url(#lake)" opacity="0.32"/>
  <path d="M260 635 C360 565 520 565 620 640 C500 668 380 668 260 635 Z" fill="#ffffff" opacity="0.42"/>
  <path d="M0 770 C280 715 430 810 720 750 C940 705 1100 790 1370 735 C1480 710 1540 720 1600 705" fill="none" stroke="#ffffff" stroke-width="16" opacity="0.42"/>
</svg>
